<svg width="1170" height="250" viewBox="0 0 1170 250" xmlns="http://www.w3.org/2000/svg"><g fill-rule="nonzero" fill="none"><path fill="#D52234" d="M.5 0h250v250H.5z"/><g fill="#FFF"><path d="M203.7 151.4c0-39.4-28.2-43.2-49.5-25.7-13.6 11.1-31.1 31.3-31.1 12.1 0-45.6-45.5-25.4-75.6 13.7v42.2c30.1-39 75.6-59.1 75.6-13.6 0 19.2 17.4-1 31.1-12.1 19.4-15.9 44.4-14.2 48.9 15.7h.7v-32.3h-.1z"/><path d="M203.7 96.1c0-39.4-28.2-43.2-49.5-25.7-13.6 11.1-31.1 31.4-31.1 12.1 0-45.6-45.5-25.4-75.6 13.6v40.1c30.7-36.7 75.6-57 75.6-11.4 0 19.2 17.4-1 31.1-12.1 19.4-15.9 44.4-14.2 48.9 15.7h.7V96.1h-.1z"/></g><path d="M959.4 215.5c-1.2 0-2.4-.5-3.3-1.4l-24.8-28.4c-.9-1-1.3-2.3-1.2-3.7.1-1.4.7-2.7 1.7-3.5 1-.9 2.4-1.4 3.8-1.3 1.3.1 2.4.7 3.3 1.6l20.2 23.5 112.4-150.6c.8-1.1 2-1.8 3.3-2 1.3-.2 2.6.1 3.7.9s1.8 2 2 3.3c.2 1.3-.1 2.6-.9 3.7-1 1.3-98.1 132.8-116.6 156.3-.8 1-2 1.6-3.3 1.7-.2-.1-.3-.1-.3-.1zM1106.6 215.9h-.7c-36.1 0-63.4-27.1-63.5-63.1h.4-.4v-.2c.1-36.1 27.5-63.3 63.8-63.3 30.2 0 61.6 20.8 63.3 60.6v5.3h-116.8c1.5 35.4 31.7 51.2 53 51.2h.4c20.7 0 38.4-10.5 47.4-28.2.9-1.7 2.6-2.8 4.5-2.8 1.8 0 3.4.9 4.3 2.4.9 1.5 1 3.4.2 4.9-11 20.8-31.9 33.2-55.9 33.2zm-53.6-70.3h106.1c-1.1-12.4-7.4-24.6-17.3-33.4-10.2-9.1-22.8-13.8-35.5-13.3-13.7 0-26.5 4.8-36.3 13.5-9.7 8.4-15.7 20.2-17 33.2zM770.7 212.6c-2.8 0-5.1-2.3-5.1-5.1V95c0-2.8 2.3-5.1 5.1-5.1s5.1 2.3 5.1 5.1v112.5c0 2.8-2.3 5.1-5.1 5.1zM543.5 215.5h-.4c-17.3 0-33.4-6.9-45.4-19.4-12-12.5-18.3-29-17.7-46.4 1.3-33 28.1-59.7 61-60.8 25-.9 48.2 13.1 59.2 35.6.6 1.3 1.1 2.7.5 4.5-.5 1.4-1.6 2.5-3 2.9-1.3.4-2.6.3-3.8-.3-.8-.4-1.4-1.1-1.9-2.1-9.4-20-29.8-32.1-51.9-30.7-26.7 1.6-48.1 23-50 49.6-1 15.1 4 29.4 14.2 40.3 10.2 10.9 24.1 17 39.1 17.1 6.8 0 13.3-1.2 19.3-3.6 13-5 23.4-14.8 29.3-27.4 1.2-2.2 3.7-3.1 6-2.3 2.1.7 3.4 2.8 3.2 5v.2c-.1.5-.2 1-.4 1.5-10.5 22.4-32.5 36.3-57.3 36.3zM730.6 212.6c-2.8 0-5-2.2-5-5v-58.8c0-19-4.2-31.3-13.7-39.9-7.7-6.9-18.7-10.6-31.9-10.6-29.8.4-45.6 16-45.6 44.9v64.3c0 2.8-2.2 5-5 5s-5-2.2-5-5V50.3c0-2.8 2.2-5 5-5s5 2.2 5 5v59.3c7.3-10.6 22.9-21.3 45.6-20.8 15.4 0 28.2 4.1 37.8 12.2 10.9 9.2 17.7 20.5 17.7 47.9v58.8c.1 2.7-2.2 4.9-4.9 4.9z" fill="#FFF"/><circle fill="#D52234" cx="770.7" cy="53.4" r="7.7"/><path d="M468 212.6c-.6 0-1.3-.1-1.9-.3-1.3-.5-2.4-1.5-3-2.8l-24.3-54.8h-90l-24.3 54.8c-.6 1.3-1.6 2.3-3 2.8-1.3.5-2.8.4-4.1-.1-2.7-1.2-3.9-4.4-2.7-7.1L389 37.3c.9-2 2.8-3.2 4.9-3.2 2.2 0 4 1.2 4.9 3.2L473 205c.6 1.3.6 2.8.1 4.1-.5 1.4-1.5 2.4-2.8 3-.8.4-1.5.5-2.3.5zm-114.3-68.7h80.5l-40.2-91-40.3 91zM860.2 215.5h-.7c-36.1 0-63.4-27.1-63.5-63.1h.4-.4v-.2c.1-36.1 27.5-63.3 63.8-63.3 30.2 0 61.6 20.8 63.3 60.6v5.3H806.3c1.5 35.4 31.7 51.2 53 51.2h.4c20.7 0 38.4-10.5 47.4-28.2.9-1.7 2.6-2.8 4.5-2.8 1.8 0 3.4.9 4.3 2.4.9 1.5 1 3.4.2 4.9-11 20.8-31.8 33.2-55.9 33.2zm-53.6-70.3h106.1c-1.1-12.4-7.4-24.6-17.3-33.4-10.2-9.1-22.8-13.8-35.5-13.3-13.7 0-26.5 4.8-36.3 13.5-9.7 8.4-15.7 20.3-17 33.2z" fill="#FFF"/></g></svg>
